<?xml version="1.0" encoding="utf-8"?>
<!-- Generator: Adobe Illustrator 22.1.0, SVG Export Plug-In . SVG Version: 6.00 Build 0)  -->
<svg version="1.1" id="Layer_1" xmlns="http://www.w3.org/2000/svg" xmlns:xlink="http://www.w3.org/1999/xlink" x="0px" y="0px"
	 viewBox="0 0 144.4 101.2" style="enable-background:new 0 0 144.4 101.2;" xml:space="preserve">
<style type="text/css">
	.st0{fill:#BA9BC9;}
	.st1{fill:#A1C6A8;}
	.st2{fill:none;stroke:#808080;stroke-miterlimit:10;}
	.st3{fill:#FFF3F4;}
	.st4{display:none;}
	.st5{display:inline;}
	.st6{fill:#666666;}
	.st7{font-family:'KlavikaRegular-Plain';}
	.st8{font-size:8px;}
	.st9{fill:#E2D48D;}
	.st10{fill:#E0AC90;}
	.st11{fill:#FFD5AB;}
</style>
<rect x="25.9" y="25.6" class="st0" width="92.1" height="25.2"/>
<rect x="14.9" y="50.8" class="st0" width="114.2" height="25.2"/>
<rect x="2.3" y="76" class="st0" width="139.3" height="25.2"/>
<rect x="74.6" y="10.9" transform="matrix(0.7071 -0.7071 0.7071 0.7071 12.8489 69.5137)" class="st1" width="31.5" height="16.7"/>
<rect x="76.3" y="13.1" transform="matrix(0.7071 -0.7071 0.7071 0.7071 12.841 69.4802)" class="st2" width="27.9" height="12.3"/>
<circle class="st3" cx="31.6" cy="26.7" r="5.7"/>
<circle class="st3" cx="38" cy="28.9" r="6.4"/>
<circle class="st3" cx="47.1" cy="53.6" r="6.4"/>
<circle class="st3" cx="92" cy="54.2" r="6.4"/>
<circle class="st3" cx="109.7" cy="53.6" r="6.4"/>
<circle class="st3" cx="64.3" cy="26.7" r="6.4"/>
<circle class="st3" cx="83.9" cy="29.9" r="6.4"/>
<circle class="st3" cx="113.1" cy="30.4" r="6.4"/>
<circle class="st3" cx="45.2" cy="27.4" r="4.9"/>
<circle class="st3" cx="55.4" cy="53.6" r="4.9"/>
<circle class="st3" cx="79.7" cy="50.8" r="4.9"/>
<circle class="st3" cx="101.1" cy="53.6" r="4.9"/>
<circle class="st3" cx="67" cy="53.6" r="4.9"/>
<circle class="st3" cx="118.8" cy="51.7" r="4.9"/>
<circle class="st3" cx="125.8" cy="55.1" r="4.9"/>
<circle class="st3" cx="73" cy="28.9" r="4.9"/>
<circle class="st3" cx="93.9" cy="27.3" r="4.9"/>
<circle class="st3" cx="103.3" cy="28.1" r="4.9"/>
<circle class="st3" cx="49.5" cy="31.4" r="2.5"/>
<circle class="st3" cx="39.6" cy="51.4" r="2.5"/>
<circle class="st3" cx="31.6" cy="52.2" r="2.5"/>
<circle class="st3" cx="72.9" cy="51.4" r="2.5"/>
<circle class="st3" cx="127.3" cy="52.2" r="2.5"/>
<circle class="st3" cx="61.3" cy="51.4" r="2.5"/>
<circle class="st3" cx="85.5" cy="51.4" r="2.5"/>
<circle class="st3" cx="27.8" cy="51.4" r="2.5"/>
<circle class="st3" cx="16.3" cy="51.7" r="2.5"/>
<circle class="st3" cx="15.5" cy="55.5" r="2.5"/>
<circle class="st3" cx="57.9" cy="25.6" r="2.5"/>
<circle class="st3" cx="77.9" cy="25.6" r="2.5"/>
<circle class="st3" cx="89.5" cy="24.9" r="2.5"/>
<circle class="st3" cx="99.5" cy="27.4" r="2.5"/>
<circle class="st3" cx="109.1" cy="25.6" r="2.5"/>
<circle class="st3" cx="117" cy="25.6" r="2.5"/>
<circle class="st3" cx="27.8" cy="28.9" r="4.9"/>
<circle class="st3" cx="34.4" cy="28" r="5.7"/>
<circle class="st3" cx="40.8" cy="30.2" r="6.4"/>
<circle class="st3" cx="67.1" cy="28" r="6.4"/>
<circle class="st3" cx="86.7" cy="31.2" r="6.4"/>
<circle class="st3" cx="115.9" cy="31.7" r="6.4"/>
<circle class="st3" cx="48" cy="28.7" r="4.9"/>
<circle class="st3" cx="55.7" cy="28" r="4.9"/>
<circle class="st3" cx="75.7" cy="30.2" r="4.9"/>
<circle class="st3" cx="96.7" cy="28.6" r="4.9"/>
<circle class="st3" cx="106.1" cy="29.4" r="4.9"/>
<circle class="st3" cx="52.3" cy="32.7" r="2.5"/>
<circle class="st3" cx="60.7" cy="26.9" r="2.5"/>
<circle class="st3" cx="80.7" cy="26.9" r="2.5"/>
<circle class="st3" cx="102.3" cy="28.7" r="2.5"/>
<circle class="st3" cx="111.9" cy="26.9" r="2.5"/>
<circle class="st3" cx="119.8" cy="26.9" r="2.5"/>
<circle class="st3" cx="30.6" cy="30.2" r="4.9"/>
<circle class="st3" cx="22.2" cy="53.6" r="4.9"/>
<circle class="st3" cx="37.2" cy="53.9" r="4.9"/>
<circle class="st3" cx="43.4" cy="52" r="6.4"/>
<circle class="st3" cx="88.3" cy="52.6" r="6.4"/>
<circle class="st3" cx="106" cy="52" r="6.4"/>
<circle class="st3" cx="51.7" cy="52" r="4.9"/>
<circle class="st3" cx="76" cy="49.2" r="4.9"/>
<circle class="st3" cx="97.4" cy="52" r="4.9"/>
<circle class="st3" cx="63.4" cy="52" r="4.9"/>
<circle class="st3" cx="115.1" cy="50.1" r="4.9"/>
<circle class="st3" cx="122.1" cy="53.5" r="4.9"/>
<circle class="st3" cx="35.9" cy="49.8" r="2.5"/>
<circle class="st3" cx="27.9" cy="50.6" r="2.5"/>
<circle class="st3" cx="69.3" cy="49.8" r="2.5"/>
<circle class="st3" cx="123.6" cy="50.6" r="2.5"/>
<circle class="st3" cx="57.6" cy="49.8" r="2.5"/>
<circle class="st3" cx="81.9" cy="49.8" r="2.5"/>
<circle class="st3" cx="24.2" cy="49.8" r="2.5"/>
<circle class="st3" cx="18.5" cy="52" r="4.9"/>
<circle class="st3" cx="33.5" cy="52.3" r="4.9"/>
<circle class="st3" cx="60.7" cy="76.9" r="6.4"/>
<circle class="st3" cx="105.6" cy="77.5" r="6.4"/>
<circle class="st3" cx="123.3" cy="76.9" r="6.4"/>
<circle class="st3" cx="69.1" cy="76.9" r="4.9"/>
<circle class="st3" cx="93.3" cy="74.2" r="4.9"/>
<circle class="st3" cx="114.7" cy="76.9" r="4.9"/>
<circle class="st3" cx="80.7" cy="76.9" r="4.9"/>
<circle class="st3" cx="132.5" cy="75.1" r="4.9"/>
<circle class="st3" cx="139.5" cy="78.4" r="4.9"/>
<circle class="st3" cx="53.3" cy="74.7" r="2.5"/>
<circle class="st3" cx="45.2" cy="75.6" r="2.5"/>
<circle class="st3" cx="86.6" cy="74.7" r="2.5"/>
<circle class="st3" cx="140.9" cy="75.6" r="2.5"/>
<circle class="st3" cx="75" cy="74.7" r="2.5"/>
<circle class="st3" cx="99.2" cy="74.7" r="2.5"/>
<circle class="st3" cx="41.5" cy="74.7" r="2.5"/>
<circle class="st3" cx="29.9" cy="75.1" r="2.5"/>
<circle class="st3" cx="29.2" cy="78.8" r="2.5"/>
<circle class="st3" cx="35.8" cy="76.9" r="4.9"/>
<circle class="st3" cx="50.8" cy="77.2" r="4.9"/>
<circle class="st3" cx="34" cy="76.3" r="6.4"/>
<circle class="st3" cx="78.9" cy="76.9" r="6.4"/>
<circle class="st3" cx="96.6" cy="76.3" r="6.4"/>
<circle class="st3" cx="42.4" cy="76.3" r="4.9"/>
<circle class="st3" cx="66.6" cy="73.5" r="4.9"/>
<circle class="st3" cx="88" cy="76.3" r="4.9"/>
<circle class="st3" cx="54" cy="76.3" r="4.9"/>
<circle class="st3" cx="105.8" cy="74.5" r="4.9"/>
<circle class="st3" cx="112.8" cy="77.8" r="4.9"/>
<circle class="st3" cx="26.6" cy="74.1" r="2.5"/>
<circle class="st3" cx="18.5" cy="75" r="2.5"/>
<circle class="st3" cx="59.9" cy="74.1" r="2.5"/>
<circle class="st3" cx="114.2" cy="75" r="2.5"/>
<circle class="st3" cx="48.3" cy="74.1" r="2.5"/>
<circle class="st3" cx="72.5" cy="74.1" r="2.5"/>
<circle class="st3" cx="14.8" cy="74.1" r="2.5"/>
<circle class="st3" cx="3.2" cy="74.5" r="2.5"/>
<circle class="st3" cx="2.5" cy="78.2" r="2.5"/>
<circle class="st3" cx="9.1" cy="76.3" r="4.9"/>
<circle class="st3" cx="24.1" cy="76.6" r="4.9"/>
<g>
	<g id="XMLID_3_">
		<g>
			<path class="st0" d="M49.3,16.3h-1.7v-1.4h1.7v-1.8c0-1.7,1-2.6,2.8-2.6c0.5,0,1,0,1.5,0.1l0,0c0.1,0,0.2,0.1,0.5,0.1L54,12
				c-0.6,0-1.3,0-1.7,0c-1,0-1.3,0.4-1.3,1.3v1.6h2.8l-0.1,1.4H51v8.3h-1.7V16.3z"/>
		</g>
	</g>
</g>
<g id="XMLID_1_">
	<g>
		<path class="st3" d="M53.5,10.7L53.4,12c-0.5-0.1-1.2-0.2-1.6-0.2c-1,0-1.3,0.4-1.3,1.3v1.6h2.8l-0.1,1.4h-2.6v8.3h-1.7v-8.3h-1.7
			v-1.4h1.7V13c0-1.4,0.6-2.2,1.7-2.5c0.3-0.1,0.6-0.1,1-0.1C52.2,10.4,52.9,10.5,53.5,10.7z"/>
	</g>
</g>
<g class="st4">
	<path class="st5" d="M53.5,12c-0.5-0.1-1.2-0.2-1.6-0.2c-1,0-1.3,0.4-1.3,1.3v1.6h2.8l-0.1,1.4h-2.6v8.3H49v-8.3h-1.7v-1.4H49V13
		c0-1.7,1-2.6,2.8-2.6c0.6,0,1.3,0.1,2,0.3L53.5,12z"/>
</g>
<circle class="st3" cx="53" cy="26.7" r="4.9"/>
<polyline class="st0" points="53.3,14.8 53.7,14.9 53.3,14.9 "/>
<polyline class="st0" points="47.1,16.2 47.6,16.3 47.6,16.2 "/>
<text transform="matrix(0.7071 -0.7071 0.7071 0.7071 89.512 23.1302)" class="st6 st7 st8">$</text>
<circle class="st9" cx="50" cy="8.1" r="1.2"/>
<path class="st9" d="M48.8,8.1c0,0-0.1-3.2,1.2-3.7c-0.3,1.5,1,2.9,1,2.9"/>
<circle class="st10" cx="49.8" cy="7.8" r="0.6"/>
<path class="st10" d="M49.1,7.8c0,0,0-2,0.6-2.4c-0.2,1,0.5,1.9,0.5,1.9l0.2,0.3"/>
<path class="st11" d="M50.2,9.3c0,0,0.7,0.5,0.7,1.1c0.3,0,0.3,0,0.3,0S51,9.5,50.5,9.2"/>
</svg>
