<?xml version="1.0" encoding="utf-8"?>
<!-- Generator: Adobe Illustrator 22.1.0, SVG Export Plug-In . SVG Version: 6.00 Build 0)  -->
<svg version="1.1" id="Layer_1" xmlns="http://www.w3.org/2000/svg" xmlns:xlink="http://www.w3.org/1999/xlink" x="0px" y="0px"
	 viewBox="0 0 600 200" style="enable-background:new 0 0 600 200;" xml:space="preserve">
<style type="text/css">
	.st0{opacity:0.4;}
	.st1{fill:#A9CA80;}
	.st2{opacity:0.3;}
	.st3{fill:#7FA1DE;}
</style>
<g class="st0">
	<path class="st1" d="M325.6,107.7c-2.3,0-4.1,0.7-5.4,2.1c-1.3,1.4-1.9,3.2-1.9,5.4c0,2.2,0.6,4,1.9,5.4c1.3,1.4,3.1,2.1,5.4,2.1
		c2.3,0,4.1-0.7,5.4-2.1c1.3-1.4,1.9-3.2,1.9-5.4c0-2.2-0.6-4-1.9-5.4C329.7,108.4,327.9,107.7,325.6,107.7z"/>
	<path class="st1" d="M182.7,117.1c-1,0.1-2,0.2-3,0.5c-1,0.3-1.8,0.7-2.4,1.3s-1,1.4-1,2.4c0,1.1,0.5,1.9,1.4,2.4
		c0.9,0.5,1.9,0.8,2.9,0.8c0.9,0,1.8-0.1,2.6-0.4c0.8-0.2,1.6-0.6,2.2-1c0.6-0.4,1.2-1,1.6-1.7c0.4-0.7,0.6-1.5,0.6-2.4v-2h-2.3
		C184.6,117,183.8,117,182.7,117.1z"/>
	<path class="st1" d="M477.4,106.2c-1,0-1.9,0.2-2.7,0.5c-0.8,0.3-1.4,0.7-2,1.3c-0.5,0.5-1,1.1-1.3,1.8c-0.3,0.7-0.5,1.4-0.5,2.1
		H483c0-1.5-0.5-2.9-1.5-4C480.4,106.8,479.1,106.2,477.4,106.2z"/>
	<path class="st1" d="M0,0v200h600V0H0z M147,130l-9.5-29.9h-0.1l-9.5,29.9h-8.2l-12.8-43.2h10.4l6.9,27.7h0.1l9-27.7h8.8l9,28.4
		h0.1l7.3-28.4h9.6L155.5,130H147z M196,130h-8.4v-3.7h-0.1c-1,1.6-2.4,2.7-4.1,3.4c-1.7,0.7-3.5,1-5.3,1c-1.4,0-2.7-0.2-4-0.6
		c-1.3-0.4-2.4-1-3.4-1.7c-1-0.8-1.7-1.7-2.3-2.9c-0.6-1.1-0.9-2.5-0.9-4c0-1.7,0.3-3.2,0.9-4.3c0.6-1.2,1.5-2.2,2.6-2.9
		c1.1-0.8,2.3-1.4,3.7-1.8c1.4-0.4,2.8-0.7,4.3-0.9c1.5-0.2,3-0.3,4.5-0.4c1.5,0,2.9-0.1,4.1-0.1c0-1.6-0.6-2.9-1.7-3.9
		c-1.2-1-2.5-1.4-4.1-1.4c-1.5,0-2.9,0.3-4.1,0.9c-1.2,0.6-2.3,1.5-3.3,2.6l-4.9-5c1.7-1.6,3.7-2.8,6-3.6c2.3-0.8,4.6-1.2,7.1-1.2
		c2.7,0,4.9,0.3,6.6,1c1.7,0.7,3.1,1.7,4.1,3c1,1.3,1.8,2.9,2.2,4.8c0.4,1.9,0.6,4.1,0.6,6.6V130z M218.8,134.8
		c-0.6,1.6-1.2,3-1.8,4.2c-0.6,1.2-1.3,2.2-2.2,3.1c-0.9,0.8-2,1.5-3.3,1.9c-1.3,0.4-3.1,0.6-5.3,0.6c-2.4,0-4.6-0.4-6.8-1.1
		l1.2-7.5c1.4,0.6,2.8,0.9,4.3,0.9c1,0,1.8-0.1,2.5-0.3c0.6-0.2,1.2-0.5,1.6-1c0.4-0.4,0.8-0.9,1.1-1.6c0.3-0.6,0.6-1.3,0.9-2.1
		l0.7-1.7l-13-29.9h9.9l7.6,19.6h0.1l6.5-19.6h9.4L218.8,134.8z M257.9,125.7c-0.8,1.2-1.9,2.2-3.2,3c-1.3,0.8-2.8,1.3-4.4,1.6
		c-1.6,0.3-3.2,0.5-4.8,0.5c-2.1,0-4.2-0.3-6.3-0.9c-2.1-0.6-3.9-1.6-5.4-3.1l5.6-6.2c0.9,1.1,1.8,1.9,2.8,2.4
		c1,0.5,2.2,0.8,3.6,0.8c1.1,0,2-0.2,2.9-0.5c0.9-0.3,1.3-0.9,1.3-1.7c0-0.8-0.4-1.4-1.1-1.7c-0.8-0.4-1.7-0.7-2.9-1
		s-2.4-0.5-3.7-0.9s-2.6-0.8-3.7-1.4s-2.1-1.5-2.9-2.6c-0.8-1.1-1.1-2.6-1.1-4.5c0-1.7,0.4-3.3,1.1-4.5c0.7-1.3,1.6-2.3,2.8-3.1
		s2.5-1.4,4-1.8c1.5-0.4,3-0.6,4.6-0.6c2,0,3.9,0.3,5.9,0.9c2,0.6,3.7,1.6,5.1,3l-5.6,5.6c-1.3-1.7-3.1-2.5-5.3-2.5
		c-0.8,0-1.5,0.2-2.3,0.5c-0.7,0.4-1.1,1-1.1,1.9c0,0.7,0.4,1.3,1.1,1.6c0.8,0.3,1.7,0.7,2.9,0.9c1.2,0.3,2.4,0.5,3.7,0.9
		c1.3,0.3,2.6,0.8,3.7,1.4c1.2,0.7,2.1,1.5,2.9,2.7c0.8,1.1,1.1,2.6,1.1,4.5C259.2,122.9,258.8,124.5,257.9,125.7z M301,130h-9.5
		V95.2h-12.3v-8.4h34.2v8.4H301V130z M340.8,121.6c-0.9,1.9-2,3.5-3.5,4.9c-1.5,1.4-3.2,2.4-5.2,3.1c-2,0.7-4.2,1.1-6.4,1.1
		c-2.3,0-4.4-0.4-6.4-1.1c-2-0.7-3.8-1.8-5.2-3.1c-1.5-1.4-2.7-3-3.5-4.9c-0.9-1.9-1.3-4-1.3-6.4c0-2.4,0.4-4.5,1.3-6.4
		c0.9-1.9,2-3.5,3.5-4.9c1.5-1.4,3.2-2.4,5.2-3.1c2-0.7,4.2-1.1,6.4-1.1c2.3,0,4.4,0.4,6.4,1.1c2,0.7,3.8,1.8,5.2,3.1
		c1.5,1.4,2.7,3,3.5,4.9c0.9,1.9,1.3,4,1.3,6.4C342,117.5,341.6,119.7,340.8,121.6z M405.7,127c-2.8,1.5-5.7,2.5-8.8,3.2
		s-6.2,1-9.3,1c-3.4,0-6.5-0.5-9.3-1.6c-2.8-1.1-5.3-2.6-7.4-4.5c-2.1-2-3.7-4.4-4.8-7.2s-1.7-5.9-1.7-9.4c0-3.5,0.6-6.6,1.7-9.4
		s2.8-5.2,4.8-7.2c2.1-2,4.5-3.5,7.4-4.5c2.8-1.1,6-1.6,9.3-1.6c3.5,0,6.6,0.4,9.5,1.3c2.9,0.8,5.5,2.3,7.7,4.3l-6.7,7.3
		c-1.3-1.3-2.8-2.4-4.4-3c-1.6-0.7-3.7-1-6.1-1c-2,0-3.9,0.3-5.5,1c-1.6,0.7-3.1,1.7-4.2,2.9c-1.2,1.2-2.1,2.7-2.7,4.4
		c-0.6,1.7-0.9,3.6-0.9,5.6c0,2,0.3,3.9,0.9,5.6c0.6,1.7,1.5,3.2,2.7,4.4c1.2,1.2,2.6,2.2,4.2,2.9c1.6,0.7,3.5,1,5.5,1
		c2.1,0,3.9-0.2,5.4-0.7c1.5-0.5,2.7-0.9,3.6-1.4v-7h-7.7v-8.8h16.9V127z M422.2,130H413v-29.6h9.1V130z M421.4,94.8
		c-1,1-2.3,1.6-3.8,1.6s-2.7-0.5-3.8-1.6s-1.6-2.3-1.6-3.8s0.5-2.7,1.6-3.8s2.3-1.6,3.8-1.6s2.7,0.5,3.8,1.6s1.6,2.3,1.6,3.8
		S422.4,93.7,421.4,94.8z M447.6,130h-9.7l-12.3-29.6h9.9l7.5,20.1h0.1l7-20.1h9.2L447.6,130z M492.2,118h-21.2
		c0.4,1.7,1.2,3.1,2.4,4.2c1.2,1,2.7,1.6,4.5,1.6c1.5,0,2.8-0.3,3.8-1s1.9-1.5,2.7-2.6l6.4,4.7c-1.5,1.9-3.3,3.3-5.6,4.3
		c-2.2,1-4.6,1.5-7,1.5c-2.3,0-4.4-0.4-6.4-1.1c-2-0.7-3.8-1.8-5.2-3.1c-1.5-1.4-2.7-3-3.5-4.9c-0.9-1.9-1.3-4-1.3-6.4
		c0-2.4,0.4-4.5,1.3-6.4c0.9-1.9,2-3.5,3.5-4.9c1.5-1.4,3.2-2.4,5.2-3.1c2-0.7,4.2-1.1,6.4-1.1c2.1,0,4,0.4,5.8,1.1
		c1.7,0.7,3.2,1.8,4.4,3.1c1.2,1.4,2.1,3,2.8,4.9c0.7,1.9,1,4,1,6.4V118z"/>
</g>
<g class="st2">
	<path class="st3" d="M106.9,86.8h10.4l6.9,27.7h0.1l9-27.7h8.8l9,28.4h0.1l7.3-28.4h9.6L155.5,130H147l-9.5-29.9h-0.1l-9.5,29.9
		h-8.2L106.9,86.8z"/>
	<path class="st3" d="M187.6,126.3h-0.1c-1,1.6-2.4,2.7-4.1,3.4c-1.7,0.7-3.5,1-5.3,1c-1.4,0-2.7-0.2-4-0.6c-1.3-0.4-2.4-1-3.4-1.7
		c-1-0.8-1.7-1.7-2.3-2.9c-0.6-1.1-0.9-2.5-0.9-4c0-1.7,0.3-3.2,0.9-4.3c0.6-1.2,1.5-2.2,2.6-2.9c1.1-0.8,2.3-1.4,3.7-1.8
		c1.4-0.4,2.8-0.7,4.3-0.9c1.5-0.2,3-0.3,4.5-0.4c1.5,0,2.9-0.1,4.1-0.1c0-1.6-0.6-2.9-1.7-3.9c-1.2-1-2.5-1.4-4.1-1.4
		c-1.5,0-2.9,0.3-4.1,0.9c-1.2,0.6-2.3,1.5-3.3,2.6l-4.9-5c1.7-1.6,3.7-2.8,6-3.6c2.3-0.8,4.6-1.2,7.1-1.2c2.7,0,4.9,0.3,6.6,1
		c1.7,0.7,3.1,1.7,4.1,3c1,1.3,1.8,2.9,2.2,4.8c0.4,1.9,0.6,4.1,0.6,6.6V130h-8.4V126.3z M185.3,117c-0.7,0-1.6,0-2.6,0.1
		c-1,0.1-2,0.2-3,0.5c-1,0.3-1.8,0.7-2.4,1.3s-1,1.4-1,2.4c0,1.1,0.5,1.9,1.4,2.4c0.9,0.5,1.9,0.8,2.9,0.8c0.9,0,1.8-0.1,2.6-0.4
		c0.8-0.2,1.6-0.6,2.2-1c0.6-0.4,1.2-1,1.6-1.7c0.4-0.7,0.6-1.5,0.6-2.4v-2H185.3z"/>
	<path class="st3" d="M218.8,134.8c-0.6,1.6-1.2,3-1.8,4.2c-0.6,1.2-1.3,2.2-2.2,3.1c-0.9,0.8-2,1.5-3.3,1.9
		c-1.3,0.4-3.1,0.6-5.3,0.6c-2.4,0-4.6-0.4-6.8-1.1l1.2-7.5c1.4,0.6,2.8,0.9,4.3,0.9c1,0,1.8-0.1,2.5-0.3c0.6-0.2,1.2-0.5,1.6-1
		c0.4-0.4,0.8-0.9,1.1-1.6c0.3-0.6,0.6-1.3,0.9-2.1l0.7-1.7l-13-29.9h9.9l7.6,19.6h0.1l6.5-19.6h9.4L218.8,134.8z"/>
	<path class="st3" d="M252.4,109.1c-1.3-1.7-3.1-2.5-5.3-2.5c-0.8,0-1.5,0.2-2.3,0.5c-0.7,0.4-1.1,1-1.1,1.9c0,0.7,0.4,1.3,1.1,1.6
		c0.8,0.3,1.7,0.7,2.9,0.9c1.2,0.3,2.4,0.5,3.7,0.9c1.3,0.3,2.6,0.8,3.7,1.4c1.2,0.7,2.1,1.5,2.9,2.7c0.8,1.1,1.1,2.6,1.1,4.5
		c0,1.9-0.4,3.5-1.3,4.7c-0.8,1.2-1.9,2.2-3.2,3c-1.3,0.8-2.8,1.3-4.4,1.6c-1.6,0.3-3.2,0.5-4.8,0.5c-2.1,0-4.2-0.3-6.3-0.9
		c-2.1-0.6-3.9-1.6-5.4-3.1l5.6-6.2c0.9,1.1,1.8,1.9,2.8,2.4c1,0.5,2.2,0.8,3.6,0.8c1.1,0,2-0.2,2.9-0.5c0.9-0.3,1.3-0.9,1.3-1.7
		c0-0.8-0.4-1.4-1.1-1.7c-0.8-0.4-1.7-0.7-2.9-1s-2.4-0.5-3.7-0.9s-2.6-0.8-3.7-1.4s-2.1-1.5-2.9-2.6c-0.8-1.1-1.1-2.6-1.1-4.5
		c0-1.7,0.4-3.3,1.1-4.5c0.7-1.3,1.6-2.3,2.8-3.1s2.5-1.4,4-1.8c1.5-0.4,3-0.6,4.6-0.6c2,0,3.9,0.3,5.9,0.9c2,0.6,3.7,1.6,5.1,3
		L252.4,109.1z"/>
	<path class="st3" d="M291.5,95.2h-12.3v-8.4h34.2v8.4H301V130h-9.5V95.2z"/>
	<path class="st3" d="M309.1,115.2c0-2.4,0.4-4.5,1.3-6.4c0.9-1.9,2-3.5,3.5-4.9c1.5-1.4,3.2-2.4,5.2-3.1c2-0.7,4.2-1.1,6.4-1.1
		c2.3,0,4.4,0.4,6.4,1.1c2,0.7,3.8,1.8,5.2,3.1c1.5,1.4,2.7,3,3.5,4.9c0.9,1.9,1.3,4,1.3,6.4c0,2.4-0.4,4.5-1.3,6.4
		c-0.9,1.9-2,3.5-3.5,4.9c-1.5,1.4-3.2,2.4-5.2,3.1c-2,0.7-4.2,1.1-6.4,1.1c-2.3,0-4.4-0.4-6.4-1.1c-2-0.7-3.8-1.8-5.2-3.1
		c-1.5-1.4-2.7-3-3.5-4.9C309.5,119.7,309.1,117.5,309.1,115.2z M318.2,115.2c0,2.2,0.6,4,1.9,5.4c1.3,1.4,3.1,2.1,5.4,2.1
		c2.3,0,4.1-0.7,5.4-2.1c1.3-1.4,1.9-3.2,1.9-5.4c0-2.2-0.6-4-1.9-5.4c-1.3-1.4-3.1-2.1-5.4-2.1c-2.3,0-4.1,0.7-5.4,2.1
		C318.9,111.1,318.2,112.9,318.2,115.2z"/>
	<path class="st3" d="M405.7,127c-2.8,1.5-5.7,2.5-8.8,3.2s-6.2,1-9.3,1c-3.4,0-6.5-0.5-9.3-1.6c-2.8-1.1-5.3-2.6-7.4-4.5
		c-2.1-2-3.7-4.4-4.8-7.2s-1.7-5.9-1.7-9.4c0-3.5,0.6-6.6,1.7-9.4s2.8-5.2,4.8-7.2c2.1-2,4.5-3.5,7.4-4.5c2.8-1.1,6-1.6,9.3-1.6
		c3.5,0,6.6,0.4,9.5,1.3c2.9,0.8,5.5,2.3,7.7,4.3l-6.7,7.3c-1.3-1.3-2.8-2.4-4.4-3c-1.6-0.7-3.7-1-6.1-1c-2,0-3.9,0.3-5.5,1
		c-1.6,0.7-3.1,1.7-4.2,2.9c-1.2,1.2-2.1,2.7-2.7,4.4c-0.6,1.7-0.9,3.6-0.9,5.6c0,2,0.3,3.9,0.9,5.6c0.6,1.7,1.5,3.2,2.7,4.4
		c1.2,1.2,2.6,2.2,4.2,2.9c1.6,0.7,3.5,1,5.5,1c2.1,0,3.9-0.2,5.4-0.7c1.5-0.5,2.7-0.9,3.6-1.4v-7h-7.7v-8.8h16.9V127z"/>
	<path class="st3" d="M412.3,91c0-1.5,0.5-2.7,1.6-3.8s2.3-1.6,3.8-1.6s2.7,0.5,3.8,1.6s1.6,2.3,1.6,3.8s-0.5,2.7-1.6,3.8
		s-2.3,1.6-3.8,1.6s-2.7-0.5-3.8-1.6S412.3,92.5,412.3,91z M413,100.4h9.1V130H413V100.4z"/>
	<path class="st3" d="M425.7,100.4h9.9l7.5,20.1h0.1l7-20.1h9.2L447.6,130h-9.7L425.7,100.4z"/>
	<path class="st3" d="M490.7,124.9c-1.5,1.9-3.3,3.3-5.6,4.3c-2.2,1-4.6,1.5-7,1.5c-2.3,0-4.4-0.4-6.4-1.1c-2-0.7-3.8-1.8-5.2-3.1
		c-1.5-1.4-2.7-3-3.5-4.9c-0.9-1.9-1.3-4-1.3-6.4c0-2.4,0.4-4.5,1.3-6.4c0.9-1.9,2-3.5,3.5-4.9c1.5-1.4,3.2-2.4,5.2-3.1
		c2-0.7,4.2-1.1,6.4-1.1c2.1,0,4,0.4,5.8,1.1c1.7,0.7,3.2,1.8,4.4,3.1c1.2,1.4,2.1,3,2.8,4.9c0.7,1.9,1,4,1,6.4v2.9h-21.2
		c0.4,1.7,1.2,3.1,2.4,4.2c1.2,1,2.7,1.6,4.5,1.6c1.5,0,2.8-0.3,3.8-1s1.9-1.5,2.7-2.6L490.7,124.9z M483,111.8c0-1.5-0.5-2.9-1.5-4
		c-1.1-1.1-2.4-1.6-4.1-1.6c-1,0-1.9,0.2-2.7,0.5c-0.8,0.3-1.4,0.7-2,1.3c-0.5,0.5-1,1.1-1.3,1.8c-0.3,0.7-0.5,1.4-0.5,2.1H483z"/>
</g>
</svg>
